<svg width="78" height="68" viewBox="0 0 78 68" fill="none" xmlns="http://www.w3.org/2000/svg">
<path d="M58.36 1H20.12L1 34.1041L20.12 67.2081H58.36L77.48 34.1041L58.36 1Z" stroke="white" stroke-width="0.8" stroke-miterlimit="10"/>
<path d="M22.696 2.72784C22.872 2.55184 40.104 2.43984 40.376 2.43984C40.648 2.43984 57.88 2.55184 57.976 2.72784C58.072 2.90384 75.256 32.5839 75.256 32.8559C75.256 33.1279 58.232 62.8079 58.056 62.9839C57.88 63.1599 40.648 63.2559 40.456 63.2559C40.264 63.2559 22.952 63.1599 22.856 62.9839C22.76 62.8079 5.41602 33.1279 5.41602 32.8559C5.41602 32.5839 22.52 2.90384 22.696 2.72784Z" stroke="white" stroke-width="0.8" stroke-miterlimit="10"/>
<path d="M25.256 4.4721C25.624 4.1201 40.968 3.8961 41.512 3.8961C42.056 3.8961 57.416 4.1201 57.768 4.4721C58.12 4.8241 73.208 31.0641 73.208 31.6721C73.208 32.2801 58.12 58.4561 57.768 58.8721C57.416 59.2881 42.056 59.4481 41.512 59.4481C40.968 59.4481 25.624 59.2241 25.256 58.8721C24.888 58.5201 9.81601 32.2801 9.81601 31.6721C9.81601 31.0641 24.84 4.8241 25.256 4.4721Z" stroke="white" stroke-width="0.8" stroke-miterlimit="10"/>
<path d="M27.832 6.21591C28.36 5.67191 41.848 5.30391 42.648 5.30391C43.448 5.30391 56.936 5.62391 57.464 6.16791C57.992 6.71191 71.08 29.5439 71.08 30.3599C71.08 31.1759 57.992 53.9759 57.464 54.5039C56.936 55.0319 43.464 55.3679 42.648 55.3679C41.832 55.3679 28.36 55.0319 27.832 54.5039C27.304 53.9759 14.232 31.1599 14.232 30.3599C14.232 29.5599 27.304 6.74391 27.832 6.21591Z" stroke="white" stroke-width="0.8" stroke-miterlimit="10"/>
<path d="M30.408 7.94381C31.112 7.23981 42.712 6.80781 43.784 6.80781C44.856 6.80781 56.472 7.23981 57.176 7.94381C57.88 8.64781 68.936 28.0237 68.936 29.1117C68.936 30.1997 57.88 49.5597 57.176 50.2637C56.472 50.9677 44.872 51.4157 43.784 51.4157C42.696 51.4157 31.112 50.9677 30.408 50.2637C29.704 49.5597 18.632 30.1837 18.632 29.1117C18.632 28.0397 29.64 8.64781 30.408 7.94381Z" stroke="white" stroke-width="0.8" stroke-miterlimit="10"/>
<path d="M32.968 9.68805C33.864 8.79205 43.576 8.24805 44.92 8.24805C46.264 8.24805 55.992 8.79205 56.872 9.68805C57.752 10.5841 66.808 26.5041 66.808 27.8641C66.808 29.2241 57.768 45.1441 56.84 46.0241C55.912 46.9041 46.248 47.4641 44.888 47.4641C43.528 47.4641 33.832 46.9201 32.936 46.0241C32.04 45.1281 23.016 29.2081 23.016 27.8641C23.016 26.5201 32.088 10.5681 32.968 9.68805Z" stroke="white" stroke-width="0.8" stroke-miterlimit="10"/>
<path d="M35.544 11.4159C36.6 10.3599 44.44 9.7039 46.056 9.7039C47.672 9.7039 55.528 10.3599 56.584 11.4159C57.64 12.4719 64.68 24.9839 64.68 26.5999C64.68 28.2159 57.64 40.7279 56.584 41.7999C55.528 42.8719 47.688 43.5119 46.056 43.5119C44.424 43.5119 36.6 42.8559 35.544 41.7999C34.488 40.7439 27.448 28.2319 27.448 26.5999C27.448 24.9679 34.44 12.4879 35.544 11.4159Z" stroke="white" stroke-width="0.8" stroke-miterlimit="10"/>
<path d="M38.104 13.1597C39.352 11.9277 45.304 11.1597 47.192 11.1597C49.08 11.1597 55.048 11.9277 56.28 13.1597C57.512 14.3917 62.536 23.4637 62.536 25.3517C62.536 27.2397 57.528 36.3117 56.28 37.5597C55.032 38.8077 49.096 39.5597 47.24 39.5597C45.384 39.5597 39.4 38.7917 38.152 37.5597C36.904 36.3277 31.912 27.2557 31.912 25.3517C31.912 23.4477 36.872 14.3917 38.104 13.1597Z" stroke="white" stroke-width="0.8" stroke-miterlimit="10"/>
<path d="M40.68 14.9041C42.088 13.4801 46.168 12.6001 48.328 12.6001C50.488 12.6001 54.568 13.4801 55.992 14.9041C57.416 16.3281 60.408 21.9441 60.408 24.1041C60.408 26.2641 57.4 31.8961 55.992 33.3201C54.584 34.7441 50.44 35.6081 48.328 35.6081C46.216 35.6081 42.088 34.7281 40.68 33.3201C39.272 31.9121 36.264 26.2641 36.264 24.1041C36.264 21.9441 39.24 16.3121 40.68 14.9041Z" stroke="white" stroke-width="0.8" stroke-miterlimit="10"/>
<path d="M58.28 22.9037C58.2845 24.9436 57.5816 26.922 56.2909 28.5015C55.0002 30.0812 53.2018 31.1644 51.2019 31.5665C49.2019 31.9685 47.1247 31.6647 45.3237 30.7068C43.5227 29.7487 42.1098 28.1957 41.3256 26.3127C40.5413 24.4297 40.4344 22.3329 41.0231 20.3797C41.6115 18.4266 42.8592 16.738 44.5533 15.6018C46.2474 14.4655 48.2832 13.9519 50.3136 14.1484C52.3439 14.345 54.2434 15.2396 55.688 16.6797C56.5107 17.4937 57.1637 18.4631 57.6087 19.5316C58.0536 20.6001 58.2818 21.7463 58.28 22.9037Z" stroke="white" stroke-width="0.8" stroke-miterlimit="10"/>
</svg>
