<svg width="78" height="57" viewBox="0 0 78 57" fill="none" xmlns="http://www.w3.org/2000/svg">
<path opacity="0.1" d="M76.568 28.296C76.568 25.5832 74.3688 23.384 71.656 23.384C68.9432 23.384 66.744 25.5832 66.744 28.296C66.744 31.0088 68.9432 33.208 71.656 33.208C74.3688 33.208 76.568 31.0088 76.568 28.296Z" stroke="white" stroke-width="0.896" stroke-miterlimit="10"/>
<path opacity="0.18" d="M67.736 21.3523H67.72C63.885 21.3523 60.776 24.4613 60.776 28.2963V28.3123C60.776 32.1474 63.885 35.2563 67.72 35.2563H67.736C71.571 35.2563 74.68 32.1474 74.68 28.3123V28.2963C74.68 24.4613 71.571 21.3523 67.736 21.3523Z" stroke="white" stroke-width="0.896" stroke-miterlimit="10"/>
<path opacity="0.26" d="M72.76 28.3043C72.76 23.3426 68.7378 19.3203 63.776 19.3203C58.8142 19.3203 54.792 23.3426 54.792 28.3043C54.792 33.2661 58.8142 37.2883 63.776 37.2883C68.7378 37.2883 72.76 33.2661 72.76 28.3043Z" stroke="white" stroke-width="0.896" stroke-miterlimit="10"/>
<path opacity="0.35" d="M70.872 28.3123C70.872 22.2239 65.9365 17.2883 59.848 17.2883C53.7597 17.2883 48.824 22.2239 48.824 28.3123C48.824 34.4007 53.7597 39.3363 59.848 39.3363C65.9365 39.3363 70.872 34.4007 70.872 28.3123Z" stroke="white" stroke-width="0.896" stroke-miterlimit="10"/>
<path opacity="0.43" d="M68.952 28.3122C68.952 21.1016 63.1067 15.2562 55.896 15.2562C48.6854 15.2562 42.84 21.1016 42.84 28.3122C42.84 35.5229 48.6854 41.3682 55.896 41.3682C63.1067 41.3682 68.952 35.5229 68.952 28.3122Z" stroke="white" stroke-width="0.896" stroke-miterlimit="10"/>
<path opacity="0.51" d="M67.048 28.3122C67.048 19.9794 60.2928 13.2242 51.96 13.2242C43.6271 13.2242 36.872 19.9794 36.872 28.3122C36.872 36.6451 43.6271 43.4002 51.96 43.4002C60.2928 43.4002 67.048 36.6451 67.048 28.3122Z" stroke="white" stroke-width="0.896" stroke-miterlimit="10"/>
<path opacity="0.59" d="M48.024 11.1762H48.008C38.553 11.1762 30.888 18.8411 30.888 28.2962V28.3122C30.888 37.7672 38.553 45.4322 48.008 45.4322H48.024C57.479 45.4322 65.144 37.7672 65.144 28.3122V28.2962C65.144 18.8411 57.479 11.1762 48.024 11.1762Z" stroke="white" stroke-width="0.896" stroke-miterlimit="10"/>
<path opacity="0.67" d="M44.072 9.14418H44.056C33.4787 9.14418 24.904 17.7187 24.904 28.2962V28.3122C24.904 38.8895 33.4787 47.4642 44.056 47.4642H44.072C54.6494 47.4642 63.224 38.8895 63.224 28.3122V28.2962C63.224 17.7187 54.6494 9.14418 44.072 9.14418Z" stroke="white" stroke-width="0.896" stroke-miterlimit="10"/>
<path opacity="0.75" d="M61.32 28.3042C61.32 16.6 51.832 7.11218 40.128 7.11218C28.424 7.11218 18.936 16.6 18.936 28.3042C18.936 40.0082 28.424 49.4962 40.128 49.4962C51.832 49.4962 61.32 40.0082 61.32 28.3042Z" stroke="white" stroke-width="0.896" stroke-miterlimit="10"/>
<path opacity="0.84" d="M59.416 28.312C59.416 15.4815 49.0147 5.08002 36.184 5.08002C23.3533 5.08002 12.952 15.4815 12.952 28.312C12.952 41.1427 23.3533 51.544 36.184 51.544C49.0147 51.544 59.416 41.1427 59.416 28.312Z" stroke="white" stroke-width="0.896" stroke-miterlimit="10"/>
<path opacity="0.92" d="M57.512 28.312C57.512 14.3591 46.201 3.04805 32.248 3.04805C18.295 3.04805 6.98401 14.3591 6.98401 28.312C6.98401 42.265 18.295 53.576 32.248 53.576C46.201 53.576 57.512 42.265 57.512 28.312Z" stroke="white" stroke-width="0.896" stroke-miterlimit="10"/>
<path d="M55.592 28.296C55.592 13.2208 43.3712 1 28.296 1C13.2208 1 1 13.2208 1 28.296C1 43.3712 13.2208 55.592 28.296 55.592C43.3712 55.592 55.592 43.3712 55.592 28.296Z" stroke="white" stroke-width="0.896" stroke-miterlimit="10"/>
</svg>
